<svg width="60" height="22" viewBox="0 0 60 22" fill="none" xmlns="http://www.w3.org/2000/svg">
<path d="M58.3797 5.68175L31.9791 21.4644C30.7842 22.1785 29.2158 22.1785 28.0209 21.4644L1.62033 5.68175C1.2459 5.48076 0.918004 5.20921 0.656499 4.88353C0.394994 4.55785 0.205314 4.18482 0.0989388 3.78702C-0.00743603 3.38921 -0.0282947 2.9749 0.0376271 2.56917C0.103549 2.16343 0.25488 1.7747 0.482461 1.42651C0.710041 1.07832 1.00914 0.777904 1.36165 0.543447C1.71416 0.308991 2.11276 0.145368 2.53332 0.0624822C2.95387 -0.020404 3.38765 -0.0208294 3.80838 0.0612308C4.22912 0.143291 4.62806 0.30613 4.98108 0.539894L30 15.5013L55.0189 0.539894C55.3719 0.30613 55.7709 0.143291 56.1916 0.0612308C56.6124 -0.0208294 57.0461 -0.020404 57.4667 0.0624822C57.8872 0.145368 58.2858 0.308991 58.6383 0.543447C58.9909 0.777904 59.29 1.07832 59.5175 1.42651C59.7451 1.7747 59.8965 2.16343 59.9624 2.56917C60.0283 2.9749 60.0074 3.38921 59.9011 3.78702C59.7947 4.18482 59.605 4.55785 59.3435 4.88353C59.082 5.20921 58.7541 5.48076 58.3797 5.68175Z" fill="#896A4B"/>
</svg>
