<svg width="38" height="30" viewBox="0 0 38 30" fill="none" xmlns="http://www.w3.org/2000/svg">
<path d="M33.75 0H3.75C1.6875 0 0.01875 1.6875 0.01875 3.75L0 26.25C0 28.3125 1.6875 30 3.75 30H33.75C35.8125 30 37.5 28.3125 37.5 26.25V3.75C37.5 1.6875 35.8125 0 33.75 0ZM33 7.96875L19.7437 16.2562C19.1437 16.6312 18.3563 16.6312 17.7563 16.2562L4.5 7.96875C4.31199 7.86321 4.14735 7.72062 4.01604 7.5496C3.88473 7.37859 3.78949 7.18271 3.73608 6.97382C3.68267 6.76493 3.67219 6.54738 3.70529 6.33433C3.73839 6.12127 3.81438 5.91715 3.92865 5.73431C4.04293 5.55148 4.19311 5.39373 4.37011 5.27062C4.54712 5.1475 4.74726 5.06158 4.95843 5.01806C5.1696 4.97454 5.38741 4.97431 5.59866 5.0174C5.80992 5.06049 6.01024 5.146 6.1875 5.26875L18.75 13.125L31.3125 5.26875C31.4898 5.146 31.6901 5.06049 31.9013 5.0174C32.1126 4.97431 32.3304 4.97454 32.5416 5.01806C32.7527 5.06158 32.9529 5.1475 33.1299 5.27062C33.3069 5.39373 33.4571 5.55148 33.5713 5.73431C33.6856 5.91715 33.7616 6.12127 33.7947 6.33433C33.8278 6.54738 33.8173 6.76493 33.7639 6.97382C33.7105 7.18271 33.6153 7.37859 33.484 7.5496C33.3527 7.72062 33.188 7.86321 33 7.96875Z" fill="white"/>
<path d="M33 7.96875L19.7437 16.2562C19.1437 16.6312 18.3563 16.6312 17.7563 16.2562L4.5 7.96875C4.31199 7.86321 4.14735 7.72062 4.01604 7.5496C3.88473 7.37859 3.78949 7.18271 3.73608 6.97382C3.68267 6.76493 3.67219 6.54738 3.70529 6.33433C3.73839 6.12127 3.81438 5.91715 3.92865 5.73431C4.04293 5.55148 4.19311 5.39373 4.37011 5.27062C4.54712 5.1475 4.74726 5.06158 4.95843 5.01806C5.1696 4.97454 5.38741 4.97431 5.59867 5.0174C5.80992 5.06049 6.01024 5.146 6.1875 5.26875L18.75 13.125L31.3125 5.26875C31.4898 5.146 31.6901 5.06049 31.9013 5.0174C32.1126 4.97431 32.3304 4.97454 32.5416 5.01806C32.7527 5.06158 32.9529 5.1475 33.1299 5.27062C33.3069 5.39373 33.4571 5.55148 33.5713 5.73431C33.6856 5.91715 33.7616 6.12127 33.7947 6.33433C33.8278 6.54738 33.8173 6.76493 33.7639 6.97382C33.7105 7.18271 33.6153 7.37859 33.484 7.5496C33.3527 7.72062 33.188 7.86321 33 7.96875Z" fill="black"/>
</svg>
