<svg width="100" height="30" viewBox="0 0 100 30" fill="none" xmlns="http://www.w3.org/2000/svg">
<path d="M96.0193 15.4006C96.5653 15.3961 97.1113 15.3914 97.6572 15.387C100.778 15.3609 100.784 4.44158 97.6572 4.43244C97.289 4.43133 96.9208 4.43021 96.5526 4.4291C96.3861 2.08094 95.6186 -0.000445412 94.2455 7.14978e-08C63.8944 0.00869211 33.5431 0.017161 3.19186 0.025853C1.66389 0.0262989 0.887721 2.65282 0.855154 5.33306C-0.634722 8.11938 -0.18017 14.8824 2.23726 15.0816C1.24586 17.7429 1.54892 22.6117 3.13798 23.9276C3.22028 26.452 3.98728 28.8323 5.46354 28.896C6.60604 28.9453 7.74873 28.9704 8.89133 29.0164C9.25025 29.5742 9.70599 29.9221 10.2682 29.9208C20.0021 29.8985 29.736 29.8764 39.47 29.8541C53.8796 30.0692 68.29 30.0547 82.6997 29.7554C84.2535 29.7231 85.0342 27.0036 85.0412 24.2828C87.1294 24.2828 89.2175 24.2828 91.3057 24.2828C93.0141 24.2828 93.7822 21.0026 93.6209 18.0313C93.9361 17.9003 94.2537 17.8058 94.5684 17.6687C95.2736 17.3616 95.7462 16.5024 96.0193 15.4006Z" fill="#E48650"/>
</svg>
